<svg width="16" height="16" viewBox="0 0 16 16" fill="none" xmlns="http://www.w3.org/2000/svg">
<path d="M8.00002 0.916748C9.92456 0.916748 10.1647 0.923831 10.9198 0.959248C11.6741 0.994665 12.1877 1.11296 12.6396 1.28862C13.1071 1.46854 13.5009 1.71221 13.8948 2.10533C14.255 2.45942 14.5337 2.88775 14.7115 3.3605C14.8864 3.81171 15.0054 4.32596 15.0409 5.08033C15.0741 5.83541 15.0834 6.07554 15.0834 8.00008C15.0834 9.92462 15.0763 10.1647 15.0409 10.9198C15.0054 11.6742 14.8864 12.1877 14.7115 12.6397C14.5342 13.1127 14.2554 13.5411 13.8948 13.8948C13.5406 14.2549 13.1123 14.5336 12.6396 14.7115C12.1884 14.8865 11.6741 15.0055 10.9198 15.0409C10.1647 15.0742 9.92456 15.0834 8.00002 15.0834C6.07548 15.0834 5.83535 15.0763 5.08027 15.0409C4.3259 15.0055 3.81235 14.8865 3.36044 14.7115C2.8875 14.5341 2.4591 14.2553 2.10527 13.8948C1.74502 13.5408 1.46631 13.1125 1.28856 12.6397C1.1129 12.1885 0.994604 11.6742 0.959187 10.9198C0.925895 10.1647 0.916687 9.92462 0.916687 8.00008C0.916687 6.07554 0.92377 5.83541 0.959187 5.08033C0.994604 4.32525 1.1129 3.81241 1.28856 3.3605C1.46581 2.88746 1.74459 2.45902 2.10527 2.10533C2.4592 1.74495 2.88757 1.46622 3.36044 1.28862C3.81235 1.11296 4.32519 0.994665 5.08027 0.959248C5.83535 0.925956 6.07548 0.916748 8.00002 0.916748ZM8.00002 4.45841C7.06071 4.45841 6.15988 4.83155 5.49568 5.49574C4.83149 6.15994 4.45835 7.06077 4.45835 8.00008C4.45835 8.93939 4.83149 9.84023 5.49568 10.5044C6.15988 11.1686 7.06071 11.5417 8.00002 11.5417C8.93933 11.5417 9.84017 11.1686 10.5044 10.5044C11.1685 9.84023 11.5417 8.93939 11.5417 8.00008C11.5417 7.06077 11.1685 6.15994 10.5044 5.49574C9.84017 4.83155 8.93933 4.45841 8.00002 4.45841V4.45841ZM12.6042 4.28133C12.6042 4.0465 12.5109 3.8213 12.3449 3.65525C12.1788 3.4892 11.9536 3.39591 11.7188 3.39591C11.4839 3.39591 11.2587 3.4892 11.0927 3.65525C10.9266 3.8213 10.8334 4.0465 10.8334 4.28133C10.8334 4.51616 10.9266 4.74137 11.0927 4.90742C11.2587 5.07346 11.4839 5.16675 11.7188 5.16675C11.9536 5.16675 12.1788 5.07346 12.3449 4.90742C12.5109 4.74137 12.6042 4.51616 12.6042 4.28133ZM8.00002 5.87508C8.56361 5.87508 9.10411 6.09896 9.50262 6.49748C9.90114 6.89599 10.125 7.4365 10.125 8.00008C10.125 8.56367 9.90114 9.10417 9.50262 9.50268C9.10411 9.9012 8.56361 10.1251 8.00002 10.1251C7.43644 10.1251 6.89593 9.9012 6.49742 9.50268C6.0989 9.10417 5.87502 8.56367 5.87502 8.00008C5.87502 7.4365 6.0989 6.89599 6.49742 6.49748C6.89593 6.09896 7.43644 5.87508 8.00002 5.87508V5.87508Z" fill="white"/>
</svg>
